<svg width="35" height="35" viewBox="0 0 35 35" fill="none" xmlns="http://www.w3.org/2000/svg">
<path d="M8.77042 11.6756C8.93706 10.3577 10.6499 8.56645 12.0092 8.76521L12.007 8.76304C13.3299 9.01443 14.3771 11.2913 14.9676 12.3151C15.386 13.0579 15.1143 13.8106 14.7241 14.1281C14.1976 14.5525 13.3744 15.1379 13.5471 15.7258C13.8542 16.7708 17.5 20.4167 19.2932 21.4531C19.9719 21.8454 20.4641 20.8107 20.8844 20.2806C21.1897 19.8729 21.943 19.6292 22.6841 20.0317C23.791 20.6762 24.8337 21.4254 25.7979 22.2687C26.2795 22.6712 26.3925 23.2661 26.0588 23.8948C25.4711 25.0021 23.7713 26.4623 22.5374 26.1656C20.3823 25.6474 11.6667 22.2687 8.86715 12.4804C8.70971 12.0174 8.74935 11.8423 8.77042 11.6756Z" fill="white"/>
<path fill-rule="evenodd" clip-rule="evenodd" d="M17.5 33.5416C15.7156 33.5416 14.7283 33.3501 13.125 32.8124L10.0544 34.3478C8.11511 35.3174 5.83337 33.9072 5.83337 31.7389V28.4374C2.69293 25.5091 1.45837 22.1326 1.45837 17.4999C1.45837 8.64035 8.64048 1.45825 17.5 1.45825C26.3596 1.45825 33.5417 8.64035 33.5417 17.4999C33.5417 26.3594 26.3596 33.5416 17.5 33.5416ZM8.75004 27.1691L7.82247 26.3042C5.38256 24.0292 4.37504 21.4857 4.37504 17.4999C4.37504 10.2512 10.2513 4.37492 17.5 4.37492C24.7488 4.37492 30.625 10.2512 30.625 17.4999C30.625 24.7487 24.7488 30.6249 17.5 30.6249C16.0626 30.6249 15.3884 30.4951 14.0525 30.0471L12.9041 29.662L8.75004 31.7389V27.1691Z" fill="white"/>
</svg>
