<svg width="60" height="60" viewBox="0 0 60 60" fill="none" xmlns="http://www.w3.org/2000/svg">
<path d="M7.5 7.5H12.5L13.5 12.5M17.5 32.5H42.5L52.5 12.5H13.5M17.5 32.5L13.5 12.5M17.5 32.5L11.7678 38.2322C10.1929 39.8071 11.3083 42.5 13.5355 42.5H42.5M42.5 42.5C39.7386 42.5 37.5 44.7386 37.5 47.5C37.5 50.2614 39.7386 52.5 42.5 52.5C45.2614 52.5 47.5 50.2614 47.5 47.5C47.5 44.7386 45.2614 42.5 42.5 42.5ZM22.5 47.5C22.5 50.2614 20.2614 52.5 17.5 52.5C14.7386 52.5 12.5 50.2614 12.5 47.5C12.5 44.7386 14.7386 42.5 17.5 42.5C20.2614 42.5 22.5 44.7386 22.5 47.5Z" stroke="white" stroke-width="2" stroke-linecap="round" stroke-linejoin="round"/>
</svg>
