<svg width="327" height="41" viewBox="0 0 327 41" fill="none" xmlns="http://www.w3.org/2000/svg">
<path d="M15.86 5.732H26.676V40H15.86V5.732ZM0.988 0.999997H41.548V10.568H0.988V0.999997ZM66.2049 40L64.8529 29.288L66.2569 25.18L64.8529 21.072L66.2049 10.308H77.2289L75.3569 25.128L77.2289 40H66.2049ZM68.7009 25.18C68.2156 28.3 67.2449 31.0387 65.7889 33.396C64.3676 35.7533 62.5476 37.5907 60.3289 38.908C58.1449 40.1907 55.6489 40.832 52.8409 40.832C49.9289 40.832 47.3636 40.1907 45.1449 38.908C42.9609 37.5907 41.2449 35.7533 39.9969 33.396C38.7489 31.004 38.1249 28.2653 38.1249 25.18C38.1249 22.0253 38.7489 19.2693 39.9969 16.912C41.2449 14.5547 42.9609 12.7173 45.1449 11.4C47.3636 10.0827 49.9289 9.424 52.8409 9.424C55.6489 9.424 58.1449 10.0827 60.3289 11.4C62.5476 12.6827 64.3849 14.5027 65.8409 16.86C67.2969 19.1827 68.2503 21.956 68.7009 25.18ZM48.8889 25.18C48.8889 26.636 49.1836 27.936 49.7729 29.08C50.3969 30.224 51.2463 31.1253 52.3209 31.784C53.3956 32.408 54.6263 32.72 56.0129 32.72C57.4689 32.72 58.8383 32.408 60.1209 31.784C61.4036 31.1253 62.5303 30.224 63.5009 29.08C64.4716 27.936 65.1996 26.636 65.6849 25.18C65.1996 23.6893 64.4716 22.372 63.5009 21.228C62.5303 20.084 61.4036 19.1827 60.1209 18.524C58.8383 17.8653 57.4689 17.536 56.0129 17.536C54.6263 17.536 53.3956 17.8653 52.3209 18.524C51.2463 19.1827 50.3969 20.084 49.7729 21.228C49.1836 22.372 48.8889 23.6893 48.8889 25.18ZM79.7339 18.16V13.532L85.7659 11.088L90.3419 2.3H96.3739V10.308H108.854V18.16H96.3739V26.896C96.3739 29.0453 96.8072 30.5533 97.6739 31.42C98.5405 32.2867 100.118 32.72 102.406 32.72C103.862 32.72 105.145 32.5987 106.254 32.356C107.398 32.0787 108.438 31.732 109.374 31.316V39.324C108.334 39.7053 106.965 40.052 105.266 40.364C103.567 40.676 101.817 40.832 100.014 40.832C96.7205 40.832 94.0165 40.3293 91.9019 39.324C89.8219 38.3187 88.2792 36.88 87.2739 35.008C86.2685 33.1013 85.7659 30.8827 85.7659 28.352V18.16H79.7339ZM139.787 40L138.435 29.288L139.839 25.18L138.435 21.072L139.787 10.308H150.811L148.939 25.128L150.811 40H139.787ZM142.283 25.18C141.798 28.3 140.827 31.0387 139.371 33.396C137.95 35.7533 136.13 37.5907 133.911 38.908C131.727 40.1907 129.231 40.832 126.423 40.832C123.511 40.832 120.946 40.1907 118.727 38.908C116.543 37.5907 114.827 35.7533 113.579 33.396C112.331 31.004 111.707 28.2653 111.707 25.18C111.707 22.0253 112.331 19.2693 113.579 16.912C114.827 14.5547 116.543 12.7173 118.727 11.4C120.946 10.0827 123.511 9.424 126.423 9.424C129.231 9.424 131.727 10.0827 133.911 11.4C136.13 12.6827 137.967 14.5027 139.423 16.86C140.879 19.1827 141.832 21.956 142.283 25.18ZM122.471 25.18C122.471 26.636 122.766 27.936 123.355 29.08C123.979 30.224 124.828 31.1253 125.903 31.784C126.978 32.408 128.208 32.72 129.595 32.72C131.051 32.72 132.42 32.408 133.703 31.784C134.986 31.1253 136.112 30.224 137.083 29.08C138.054 27.936 138.782 26.636 139.267 25.18C138.782 23.6893 138.054 22.372 137.083 21.228C136.112 20.084 134.986 19.1827 133.703 18.524C132.42 17.8653 131.051 17.536 129.595 17.536C128.208 17.536 126.978 17.8653 125.903 18.524C124.828 19.1827 123.979 20.084 123.355 21.228C122.766 22.372 122.471 23.6893 122.471 25.18ZM154.512 10.308H165.328L167.096 20.916V40H156.488V20.292L154.512 10.308ZM181.032 9.84V18.888C179.992 18.68 179.004 18.5413 178.068 18.472C177.167 18.368 176.335 18.316 175.572 18.316C174.047 18.316 172.643 18.628 171.36 19.252C170.077 19.8413 169.037 20.8293 168.24 22.216C167.477 23.6027 167.096 25.4573 167.096 27.78L165.068 25.284C165.345 23.1347 165.761 21.124 166.316 19.252C166.871 17.3453 167.616 15.664 168.552 14.208C169.523 12.7173 170.719 11.556 172.14 10.724C173.561 9.85733 175.295 9.424 177.34 9.424C177.929 9.424 178.536 9.45867 179.16 9.528C179.784 9.59733 180.408 9.70133 181.032 9.84ZM183.161 27.208H194.133C194.306 28.2827 194.809 29.2187 195.641 30.016C196.473 30.8133 197.582 31.4373 198.969 31.888C200.39 32.304 202.054 32.512 203.961 32.512C206.596 32.512 208.676 32.1827 210.201 31.524C211.726 30.8307 212.489 29.8253 212.489 28.508C212.489 27.5027 212.056 26.7227 211.189 26.168C210.322 25.6133 208.658 25.2147 206.197 24.972L198.917 24.296C193.544 23.8107 189.644 22.5973 187.217 20.656C184.79 18.68 183.577 16.028 183.577 12.7C183.577 9.996 184.357 7.708 185.917 5.836C187.512 3.964 189.73 2.56 192.573 1.624C195.45 0.653332 198.796 0.167998 202.609 0.167998C206.353 0.167998 209.681 0.705332 212.593 1.78C215.505 2.82 217.81 4.31066 219.509 6.252C221.242 8.19333 222.178 10.4467 222.317 13.012H211.397C211.258 12.076 210.808 11.2787 210.045 10.62C209.317 9.92667 208.312 9.40666 207.029 9.06C205.746 8.67867 204.204 8.488 202.401 8.488C199.974 8.488 198.05 8.81733 196.629 9.476C195.208 10.1 194.497 11.036 194.497 12.284C194.497 13.1853 194.913 13.9133 195.745 14.468C196.612 15.0227 198.154 15.404 200.373 15.612L208.121 16.392C211.83 16.7387 214.794 17.3453 217.013 18.212C219.232 19.044 220.844 20.2053 221.849 21.696C222.854 23.1867 223.357 25.0413 223.357 27.26C223.357 29.9987 222.542 32.3907 220.913 34.436C219.284 36.4467 216.996 38.024 214.049 39.168C211.102 40.2773 207.67 40.832 203.753 40.832C199.732 40.832 196.178 40.2773 193.093 39.168C190.042 38.024 187.65 36.4293 185.917 34.384C184.184 32.304 183.265 29.912 183.161 27.208ZM224.968 18.16V13.532L231 11.088L235.576 2.3H241.608V10.308H254.088V18.16H241.608V26.896C241.608 29.0453 242.042 30.5533 242.908 31.42C243.775 32.2867 245.352 32.72 247.64 32.72C249.096 32.72 250.379 32.5987 251.488 32.356C252.632 32.0787 253.672 31.732 254.608 31.316V39.324C253.568 39.7053 252.199 40.052 250.5 40.364C248.802 40.676 247.051 40.832 245.248 40.832C241.955 40.832 239.251 40.3293 237.136 39.324C235.056 38.3187 233.514 36.88 232.508 35.008C231.503 33.1013 231 30.8827 231 28.352V18.16H224.968ZM285.021 40L283.669 29.288L285.073 25.18L283.669 21.072L285.021 10.308H296.045L294.173 25.128L296.045 40H285.021ZM287.517 25.18C287.032 28.3 286.061 31.0387 284.605 33.396C283.184 35.7533 281.364 37.5907 279.145 38.908C276.961 40.1907 274.465 40.832 271.657 40.832C268.745 40.832 266.18 40.1907 263.961 38.908C261.777 37.5907 260.061 35.7533 258.813 33.396C257.565 31.004 256.941 28.2653 256.941 25.18C256.941 22.0253 257.565 19.2693 258.813 16.912C260.061 14.5547 261.777 12.7173 263.961 11.4C266.18 10.0827 268.745 9.424 271.657 9.424C274.465 9.424 276.961 10.0827 279.145 11.4C281.364 12.6827 283.201 14.5027 284.657 16.86C286.113 19.1827 287.067 21.956 287.517 25.18ZM267.705 25.18C267.705 26.636 268 27.936 268.589 29.08C269.213 30.224 270.063 31.1253 271.137 31.784C272.212 32.408 273.443 32.72 274.829 32.72C276.285 32.72 277.655 32.408 278.937 31.784C280.22 31.1253 281.347 30.224 282.317 29.08C283.288 27.936 284.016 26.636 284.501 25.18C284.016 23.6893 283.288 22.372 282.317 21.228C281.347 20.084 280.22 19.1827 278.937 18.524C277.655 17.8653 276.285 17.536 274.829 17.536C273.443 17.536 272.212 17.8653 271.137 18.524C270.063 19.1827 269.213 20.084 268.589 21.228C268 22.372 267.705 23.6893 267.705 25.18ZM299.746 10.308H310.562L312.33 20.916V40H301.722V20.292L299.746 10.308ZM326.266 9.84V18.888C325.226 18.68 324.238 18.5413 323.302 18.472C322.401 18.368 321.569 18.316 320.806 18.316C319.281 18.316 317.877 18.628 316.594 19.252C315.312 19.8413 314.272 20.8293 313.474 22.216C312.712 23.6027 312.33 25.4573 312.33 27.78L310.302 25.284C310.58 23.1347 310.996 21.124 311.55 19.252C312.105 17.3453 312.85 15.664 313.786 14.208C314.757 12.7173 315.953 11.556 317.374 10.724C318.796 9.85733 320.529 9.424 322.574 9.424C323.164 9.424 323.77 9.45867 324.394 9.528C325.018 9.59733 325.642 9.70133 326.266 9.84Z" fill="white"/>
</svg>
