<svg width="34" height="34" viewBox="0 0 34 34" fill="none" xmlns="http://www.w3.org/2000/svg">
<path d="M4.25 4.25H7.08333L7.65 7.08333M9.91667 18.4167H24.0833L29.75 7.08333H7.65M9.91667 18.4167L7.65 7.08333M9.91667 18.4167L6.6684 21.6649C5.77595 22.5574 6.40802 24.0833 7.67014 24.0833H24.0833M24.0833 24.0833C22.5185 24.0833 21.25 25.3519 21.25 26.9167C21.25 28.4815 22.5185 29.75 24.0833 29.75C25.6481 29.75 26.9167 28.4815 26.9167 26.9167C26.9167 25.3519 25.6481 24.0833 24.0833 24.0833ZM12.75 26.9167C12.75 28.4815 11.4815 29.75 9.91667 29.75C8.35186 29.75 7.08333 28.4815 7.08333 26.9167C7.08333 25.3519 8.35186 24.0833 9.91667 24.0833C11.4815 24.0833 12.75 25.3519 12.75 26.9167Z" stroke="white" stroke-width="3" stroke-linecap="round" stroke-linejoin="round"/>
</svg>
