<svg width="40" height="40" viewBox="0 0 40 40" fill="none" xmlns="http://www.w3.org/2000/svg">
<path fill-rule="evenodd" clip-rule="evenodd" d="M38.5195 7.49074C39.0493 4.90779 36.5123 2.76131 34.0528 3.71159L3.90416 15.3599C1.15752 16.4211 1.03513 20.2619 3.70862 21.4958L10.2742 24.5261L13.3975 35.4576C13.5597 36.0254 14.0103 36.4651 14.5819 36.6133C15.1536 36.7613 15.761 36.5959 16.1785 36.1783L20.9897 31.3671L27.7292 36.4218C29.6855 37.8889 32.5032 36.8203 32.9945 34.4248L38.5195 7.49074ZM5.10549 18.4693L35.2542 6.82092L29.7292 33.7551L21.8333 27.8331C21.1698 27.3354 20.2413 27.4014 19.6548 27.9879L17.5942 30.0486L18.2133 26.6434L30.3452 14.5116C30.9357 13.9212 30.998 12.985 30.4912 12.3215C29.9843 11.6579 29.0648 11.4718 28.3398 11.8861L11.5854 21.4599L5.10549 18.4693ZM13.6282 24.1318L14.6389 27.6691L15.0269 25.5349C15.0875 25.2014 15.2485 24.8943 15.4882 24.6546L19.188 20.9549L13.6282 24.1318Z" fill="white"/>
</svg>
