<svg width="31" height="31" viewBox="0 0 31 31" fill="none" xmlns="http://www.w3.org/2000/svg">
<path d="M2.95821 2.95833L2.44014 2.44515L2.44628 2.43909L2.95821 2.95833ZM2.95821 28.0417L2.44502 28.5597L2.43897 28.5535L2.95821 28.0417ZM28.0415 28.0417L28.5596 28.5549L28.5535 28.561L28.0415 28.0417ZM28.0415 2.95833L28.5547 2.44026L28.5608 2.4464L28.0415 2.95833ZM5.83598 9.79306L5.10696 9.80801C5.10295 9.61207 5.17797 9.42276 5.31513 9.28278C5.45228 9.14278 5.64 9.06389 5.83598 9.06389V9.79306ZM16.8221 21.9264H17.5513C17.5513 22.3291 17.2247 22.6556 16.8221 22.6556V21.9264ZM16.8221 17.5902H16.0929C16.0929 17.3843 16.18 17.188 16.3327 17.0498C16.4854 16.9115 16.6894 16.8443 16.8944 16.8647L16.8221 17.5902ZM21.8485 21.9264V22.6556C21.5315 22.6556 21.2509 22.4509 21.1542 22.149L21.8485 21.9264ZM25.2998 21.9264L26.0038 21.7361C26.063 21.9552 26.0169 22.1894 25.8789 22.3696C25.7408 22.5499 25.5269 22.6556 25.2998 22.6556V21.9264ZM20.3123 15.8402L19.9874 16.4931C19.7498 16.3747 19.5951 16.1366 19.5839 15.8713C19.5725 15.606 19.7064 15.3556 19.9332 15.2175L20.3123 15.8402ZM24.5707 9.78333V9.05417C24.7897 9.05417 24.9971 9.1526 25.1356 9.32228C25.2742 9.49194 25.329 9.71488 25.2851 9.92944L24.5707 9.78333ZM21.4402 9.78333L20.7384 9.58526C20.8271 9.27111 21.1137 9.05417 21.4402 9.05417V9.78333ZM16.8221 14.5861L16.8994 15.3111C16.6938 15.3332 16.4884 15.2667 16.3346 15.1284C16.1807 14.99 16.0929 14.793 16.0929 14.5861H16.8221ZM16.8221 9.79306V9.06389C17.2247 9.06389 17.5513 9.39036 17.5513 9.79306H16.8221ZM13.6819 9.79306H12.9527C12.9527 9.39036 13.2791 9.06389 13.6819 9.06389V9.79306ZM13.6819 18.1931H14.411C14.411 18.4175 14.3075 18.6296 14.1306 18.7678C13.9535 18.9059 13.7228 18.9549 13.505 18.9004L13.6819 18.1931ZM9.18042 9.79306V9.06389C9.57767 9.06389 9.90182 9.38187 9.90946 9.77903L9.18042 9.79306ZM0.187378 14.9167C0.187378 11.6365 0.185847 9.10455 0.449032 7.13816C0.715018 5.15082 1.26315 3.63335 2.44014 2.44515L3.47624 3.47148C2.61158 4.34438 2.13891 5.50543 1.89447 7.33163C1.64724 9.17878 1.64571 11.5955 1.64571 14.9167H0.187378ZM0.187378 16.0833V14.9167H1.64571V16.0833H0.187378ZM2.43897 28.5535C1.26312 27.3609 0.715032 25.8421 0.449032 23.8545C0.185847 21.8882 0.187378 19.3588 0.187378 16.0833H1.64571C1.64571 19.3996 1.64724 21.8139 1.89447 23.6611C2.13888 25.4871 2.61164 26.6516 3.47745 27.5298L2.43897 28.5535ZM14.9165 30.8125C11.6364 30.8125 9.10443 30.8141 7.13804 30.5509C5.15068 30.2849 3.63323 29.7367 2.44502 28.5597L3.47136 27.5237C4.34425 28.3883 5.50531 28.861 7.3315 29.1054C9.17866 29.3526 11.5953 29.3542 14.9165 29.3542V30.8125ZM16.0832 30.8125H14.9165V29.3542H16.0832V30.8125ZM28.5535 28.561C27.3609 29.7368 25.8419 30.2849 23.8545 30.5509C21.888 30.8141 19.3586 30.8125 16.0832 30.8125V29.3542C19.3995 29.3542 21.8138 29.3526 23.6609 29.1054C25.4871 28.861 26.6514 28.3882 27.5296 27.5224L28.5535 28.561ZM30.8123 16.0833C30.8123 19.3636 30.8139 21.8955 30.5507 23.8618C30.2847 25.8492 29.7367 27.3666 28.5596 28.5549L27.5235 27.5285C28.3881 26.6557 28.8609 25.4945 29.1053 23.6684C29.3525 21.8211 29.354 19.4045 29.354 16.0833H30.8123ZM30.8123 14.9167V16.0833H29.354V14.9167H30.8123ZM28.5608 2.4464C29.7367 3.63905 30.2847 5.158 30.5507 7.14546C30.8139 9.11183 30.8123 11.6413 30.8123 14.9167H29.354C29.354 11.6004 29.3525 9.18609 29.1053 7.33892C28.8609 5.51284 28.3881 4.34845 27.5223 3.47027L28.5608 2.4464ZM16.0832 0.1875C19.3634 0.1875 21.8953 0.185969 23.8618 0.449154C25.849 0.71514 27.3664 1.26325 28.5547 2.44026L27.5284 3.47636C26.6555 2.6117 25.4945 2.13903 23.6682 1.8946C21.8211 1.64736 19.4044 1.64583 16.0832 1.64583V0.1875ZM14.9165 0.1875H16.0832V1.64583H14.9165V0.1875ZM2.44628 2.43909C3.63893 1.26324 5.15787 0.715169 7.14533 0.449154C9.11171 0.185969 11.6412 0.1875 14.9165 0.1875V1.64583C11.6002 1.64583 9.18595 1.64736 7.3388 1.8946C5.51272 2.139 4.34832 2.61176 3.47014 3.47757L2.44628 2.43909ZM16.4332 22.6556C12.9299 22.6556 10.1048 21.4497 8.147 19.1797C6.20372 16.9265 5.187 13.709 5.10696 9.80801L6.565 9.7781C6.64053 13.4604 7.5974 16.3095 9.25134 18.2272C10.8908 20.128 13.2865 21.1973 16.4332 21.1973V22.6556ZM16.4429 22.6556H16.4332V21.1973H16.4429V22.6556ZM16.8221 22.6556H16.4429V21.1973H16.8221V22.6556ZM17.5513 17.5902V21.9264H16.0929V17.5902H17.5513ZM21.1542 22.149C20.4863 20.0663 18.8476 18.5247 16.7498 18.3159L16.8944 16.8647C19.6771 17.1419 21.7329 19.1781 22.5428 21.7038L21.1542 22.149ZM25.2998 22.6556H21.8485V21.1973H25.2998V22.6556ZM24.0226 17.8864C24.9476 19.0152 25.6228 20.3272 26.0038 21.7361L24.596 22.1168C24.2689 20.9069 23.6891 19.7801 22.8946 18.8109L24.0226 17.8864ZM20.6372 15.1875C21.9438 15.8378 23.0976 16.7577 24.0226 17.8864L22.8946 18.8109C22.1002 17.8415 21.1094 17.0515 19.9874 16.4931L20.6372 15.1875ZM23.6694 13.675C22.879 14.7993 21.8653 15.7484 20.6916 16.4631L19.9332 15.2175C20.9356 14.6071 21.8013 13.7964 22.4763 12.8364L23.6694 13.675ZM25.2851 9.92944C25.0098 11.2758 24.4597 12.5509 23.6694 13.675L22.4763 12.8364C23.1514 11.8761 23.6211 10.7871 23.8564 9.63724L25.2851 9.92944ZM21.4402 9.05417H24.5707V10.5125H21.4402V9.05417ZM16.7448 13.8611C17.4689 13.7838 18.3038 13.3119 19.0654 12.5101C19.8175 11.7184 20.4316 10.672 20.7384 9.58526L22.1419 9.9814C21.768 11.3057 21.0308 12.5587 20.1229 13.5145C19.2244 14.4602 18.0907 15.1841 16.8994 15.3111L16.7448 13.8611ZM17.5513 9.79306V14.5861H16.0929V9.79306H17.5513ZM13.6819 9.06389H16.8221V10.5222H13.6819V9.06389ZM12.9527 18.1931V9.79306H14.411V18.1931H12.9527ZM9.90946 9.77903C10.0125 15.1392 12.3432 17.1068 13.8586 17.4857L13.505 18.9004C11.1316 18.3071 8.56221 15.5691 8.4514 9.80708L9.90946 9.77903ZM5.83598 9.06389H9.18042V10.5222H5.83598V9.06389Z" fill="white"/>
</svg>
